<svg preserveAspectRatio="none" width="100%" height="100%" overflow="visible" style="display: block;" viewBox="0 0 29.0903 35.0009" fill="none" xmlns="http://www.w3.org/2000/svg">
<g id="AI">
<path id="Vector" d="M11.1622 6.79531L12.1659 9.58281C13.2809 12.6766 15.7172 15.1128 18.8109 16.2278L21.5984 17.2316C21.8497 17.3228 21.8497 17.6791 21.5984 17.7691L18.8109 18.7728C15.7172 19.8878 13.2809 22.3241 12.1659 25.4178L11.1622 28.2053C11.0709 28.4566 10.7147 28.4566 10.6247 28.2053L9.62094 25.4178C8.50594 22.3241 6.06969 19.8878 2.97594 18.7728L0.188438 17.7691C-0.0628121 17.6778 -0.0628121 17.3216 0.188438 17.2316L2.97594 16.2278C6.06969 15.1128 8.50594 12.6766 9.62094 9.58281L10.6247 6.79531C10.7147 6.54281 11.0709 6.54281 11.1622 6.79531Z" fill="white"/>
<path id="Vector_2" d="M23.7097 0.0965627L24.2184 1.50781C24.7834 3.07406 26.0172 4.30781 27.5834 4.87281L28.9947 5.38156C29.1222 5.42781 29.1222 5.60781 28.9947 5.65406L27.5834 6.16281C26.0172 6.72781 24.7834 7.96156 24.2184 9.52781L23.7097 10.9391C23.6634 11.0666 23.4834 11.0666 23.4372 10.9391L22.9284 9.52781C22.3634 7.96156 21.1297 6.72781 19.5634 6.16281L18.1522 5.65406C18.0247 5.60781 18.0247 5.42781 18.1522 5.38156L19.5634 4.87281C21.1297 4.30781 22.3634 3.07406 22.9284 1.50781L23.4372 0.0965627C23.4834 -0.0321873 23.6647 -0.0321873 23.7097 0.0965627Z" fill="white"/>
<path id="Vector_3" d="M23.7097 24.0628L24.2184 25.4741C24.7834 27.0403 26.0172 28.2741 27.5834 28.8391L28.9947 29.3478C29.1222 29.3941 29.1222 29.5741 28.9947 29.6203L27.5834 30.1291C26.0172 30.6941 24.7834 31.9278 24.2184 33.4941L23.7097 34.9053C23.6634 35.0328 23.4834 35.0328 23.4372 34.9053L22.9284 33.4941C22.3634 31.9278 21.1297 30.6941 19.5634 30.1291L18.1522 29.6203C18.0247 29.5741 18.0247 29.3941 18.1522 29.3478L19.5634 28.8391C21.1297 28.2741 22.3634 27.0403 22.9284 25.4741L23.4372 24.0628C23.4834 23.9353 23.6647 23.9353 23.7097 24.0628Z" fill="white"/>
</g>
</svg>
