<svg preserveAspectRatio="none" width="100%" height="100%" overflow="visible" style="display: block;" viewBox="0 0 20 20" fill="none" xmlns="http://www.w3.org/2000/svg">
<g id="Layer_2">
<path id="Vector" d="M18.3333 9.16667H3.67833L8.08917 4.75583C8.16876 4.67896 8.23224 4.58701 8.27592 4.48534C8.31959 4.38367 8.34258 4.27432 8.34354 4.16367C8.3445 4.05302 8.32342 3.94329 8.28152 3.84087C8.23962 3.73846 8.17774 3.64541 8.0995 3.56717C8.02125 3.48893 7.92821 3.42705 7.82579 3.38515C7.72338 3.34325 7.61365 3.32216 7.503 3.32312C7.39235 3.32409 7.283 3.34707 7.18133 3.39075C7.07966 3.43442 6.98771 3.49791 6.91083 3.5775L1.0775 9.41083C0.921274 9.56711 0.833511 9.77903 0.833511 10C0.833511 10.221 0.921274 10.4329 1.0775 10.5892L6.91083 16.4225C7.068 16.5743 7.2785 16.6583 7.497 16.6564C7.7155 16.6545 7.92451 16.5669 8.07901 16.4123C8.23352 16.2578 8.32116 16.0488 8.32306 15.8303C8.32496 15.6118 8.24096 15.4013 8.08917 15.2442L3.67833 10.8333H18.3333C18.5543 10.8333 18.7663 10.7455 18.9226 10.5893C19.0789 10.433 19.1667 10.221 19.1667 10C19.1667 9.77899 19.0789 9.56702 18.9226 9.41074C18.7663 9.25446 18.5543 9.16667 18.3333 9.16667Z" fill="var(--fill-0, white)"/>
</g>
</svg>
