<svg preserveAspectRatio="none" width="100%" height="100%" overflow="visible" style="display: block;" viewBox="0 0 24 24" fill="none" xmlns="http://www.w3.org/2000/svg">
<g id="Frame">
<path id="Vector" d="M12 2.25C10.0716 2.25 8.18655 2.82183 6.58319 3.89317C4.97981 4.96451 3.73013 6.48726 2.99218 8.26882C2.25422 10.0504 2.06114 12.0108 2.43735 13.9021C2.81356 15.7934 3.74215 17.5307 5.10572 18.8943C6.46928 20.2579 8.20658 21.1865 10.0979 21.5627C11.9892 21.9389 13.9496 21.7458 15.7312 21.0078C17.5127 20.2699 19.0355 19.0202 20.1068 17.4168C21.1782 15.8135 21.75 13.9284 21.75 12C21.7451 9.41565 20.7162 6.93859 18.8888 5.11118C17.0615 3.28378 14.5844 2.25496 12 2.25ZM12 20.25C10.3683 20.25 8.77328 19.7662 7.41655 18.8597C6.05984 17.9531 5.00242 16.6646 4.378 15.1571C3.75358 13.6496 3.5902 11.9909 3.90853 10.3905C4.22686 8.79015 5.01259 7.32015 6.16637 6.16637C7.32016 5.01259 8.79015 4.22685 10.3905 3.90852C11.9909 3.59019 13.6496 3.75357 15.1571 4.378C16.6646 5.00242 17.9531 6.05984 18.8597 7.41655C19.7662 8.77328 20.25 10.3683 20.25 12C20.2475 14.1873 19.3775 16.2842 17.8309 17.8309C16.2842 19.3775 14.1873 20.2475 12 20.25ZM18 12C18 13.1867 17.6481 14.3467 16.9889 15.3334C16.3295 16.3201 15.3925 17.0891 14.2961 17.5433C13.1998 17.9974 11.9933 18.1163 10.8295 17.8847C9.66555 17.6532 8.5965 17.0818 7.7574 16.2427C6.91825 15.4035 6.34681 14.3344 6.11529 13.1705C5.88378 12.0067 6.0026 10.8002 6.45673 9.70388C6.91085 8.60753 7.67993 7.67047 8.66655 7.01118C9.65325 6.35189 10.8134 6 12 6C13.5905 6.00248 15.1152 6.63541 16.2399 7.7601C17.3646 8.8848 17.9975 10.4095 18 12Z" fill="url(#paint0_linear_95_885)"/>
</g>
<defs>
<linearGradient id="paint0_linear_95_885" x1="21.75" y1="12" x2="2.25" y2="12" gradientUnits="userSpaceOnUse">
<stop stop-color="#2BC5C5"/>
<stop offset="1" stop-color="#24C780"/>
</linearGradient>
</defs>
</svg>
