<svg width="24" height="24" viewBox="0 0 24 24" fill="none" xmlns="http://www.w3.org/2000/svg">
  <!-- Head -->
  <g transform="translate(6.048, 0)">
    <path d="M5.78063 11.5609C7.36888 11.5609 8.744 10.9913 9.8679 9.86735C10.9914 8.74364 11.5613 7.3687 11.5613 5.78026C11.5613 4.19237 10.9916 2.81726 9.86772 1.69317C8.74382 0.56964 7.3687 0 5.78063 0C4.19219 0 2.81726 0.56964 1.69354 1.69336C0.569823 2.81707 0 4.19219 0 5.78026C0 7.3687 0.569823 8.74382 1.69354 9.86753C2.81762 10.9911 4.19274 11.5609 5.78063 11.5609ZM2.68817 2.6878C3.55041 1.82556 4.56188 1.40643 5.78063 1.40643C6.99919 1.40643 8.01085 1.82556 8.87327 2.6878C9.73552 3.55023 10.1548 4.56188 10.1548 5.78026C10.1548 6.99901 9.73552 8.01048 8.87327 8.87291C8.01085 9.73533 6.99919 10.1545 5.78063 10.1545C4.56225 10.1545 3.55077 9.73515 2.68817 8.87291C1.82574 8.01067 1.40643 6.99901 1.40643 5.78026C1.40643 4.56188 1.82574 3.55023 2.68817 2.6878Z" fill="white"/>
  </g>
  <!-- Body -->
  <g transform="translate(1.968, 11.592)">
    <path d="M19.9748 6.86186C19.9423 6.39421 19.8768 5.88408 19.7803 5.34539C19.6829 4.80266 19.5575 4.2896 19.4073 3.82067C19.252 3.33599 19.0413 2.85736 18.7804 2.39868C18.5099 1.9226 18.192 1.50805 17.8354 1.16693C17.4624 0.810057 17.0057 0.523131 16.4776 0.313842C15.9514 0.105652 15.3682 0.000183105 14.7444 0.000183105C14.4994 0.000183105 14.2624 0.100708 13.8048 0.39862C13.5232 0.582274 13.1938 0.794676 12.8261 1.0296C12.5118 1.22992 12.0859 1.4176 11.5598 1.58752C11.0465 1.7536 10.5254 1.83783 10.0109 1.83783C9.49675 1.83783 8.97563 1.7536 8.46202 1.58752C7.93651 1.41778 7.51042 1.2301 7.19658 1.02978C6.83238 0.797057 6.5028 0.584655 6.21697 0.398437C5.75975 0.100525 5.52282 0 5.27782 0C4.6538 0 4.07079 0.105652 3.54473 0.314025C3.01702 0.522948 2.56018 0.809874 2.18682 1.16711C1.83014 1.50842 1.51227 1.92279 1.242 2.39868C0.981443 2.85736 0.770506 3.33581 0.615233 3.82085C0.46527 4.28979 0.339843 4.80266 0.242431 5.34539C0.145752 5.88335 0.0803832 6.39366 0.0479736 6.86241C0.0161133 7.32073 0 7.79771 0 8.27965C0 9.53245 0.398254 10.5467 1.18359 11.2947C1.95922 12.0328 2.98535 12.407 4.23357 12.407H15.7897C17.0376 12.407 18.0637 12.0328 18.8395 11.2947C19.625 10.5472 20.0233 9.53264 20.0233 8.27946C20.0231 7.79588 20.0068 7.31889 19.9748 6.86186ZM17.8698 10.2757C17.3573 10.7635 16.6768 11.0006 15.7895 11.0006H4.23357C3.34606 11.0006 2.66564 10.7635 2.15332 10.2759C1.65069 9.79741 1.40643 9.14427 1.40643 8.27965C1.40643 7.82994 1.42126 7.38591 1.45092 6.95964C1.47986 6.54143 1.539 6.08202 1.62671 5.59386C1.71331 5.11175 1.82354 4.65929 1.95465 4.24969C2.08044 3.85693 2.25201 3.46801 2.46478 3.09338C2.66784 2.73632 2.90148 2.42999 3.1593 2.18316C3.40045 1.95227 3.7044 1.7633 4.06255 1.62158C4.39379 1.49048 4.76604 1.4187 5.17016 1.4079C5.21941 1.43408 5.30712 1.48407 5.44921 1.57672C5.73833 1.76513 6.07158 1.9801 6.43999 2.21539C6.85527 2.48016 7.39031 2.71929 8.02953 2.92565C8.68303 3.13696 9.34953 3.24426 10.0111 3.24426C10.6726 3.24426 11.3393 3.13696 11.9925 2.92584C12.6322 2.71911 13.1671 2.48016 13.5829 2.21502C13.9599 1.97406 14.2838 1.76532 14.573 1.57672C14.7151 1.48425 14.8028 1.43408 14.852 1.4079C15.2563 1.4187 15.6286 1.49048 15.96 1.62158C16.318 1.7633 16.6219 1.95245 16.8631 2.18316C17.1209 2.4298 17.3545 2.73614 17.5576 3.09356C17.7705 3.46801 17.9423 3.85711 18.0679 4.2495C18.1992 4.65966 18.3096 5.11193 18.396 5.59368C18.4835 6.08275 18.5429 6.54235 18.5718 6.95983V6.96019C18.6016 7.38481 18.6167 7.82866 18.6168 8.27965C18.6167 9.14445 18.3724 9.79741 17.8698 10.2757Z" fill="white"/>
  </g>
</svg>
