<svg width="16" height="16" viewBox="0 0 16 16" fill="none" xmlns="http://www.w3.org/2000/svg">
<g clip-path="url(#clip0_94_308)">
<path d="M1.33339 7.33331H13.0574L9.52873 3.80464C9.46505 3.74314 9.41427 3.66958 9.37933 3.58824C9.34439 3.50691 9.326 3.41943 9.32523 3.33091C9.32446 3.24239 9.34133 3.1546 9.37485 3.07267C9.40837 2.99074 9.45787 2.9163 9.52046 2.85371C9.58306 2.79111 9.65749 2.74161 9.73942 2.70809C9.82136 2.67457 9.90914 2.6577 9.99766 2.65847C10.0862 2.65924 10.1737 2.67763 10.255 2.71257C10.3363 2.74751 10.4099 2.7983 10.4714 2.86197L15.1381 7.52864C15.263 7.65366 15.3333 7.8232 15.3333 7.99997C15.3333 8.17675 15.263 8.34629 15.1381 8.4713L10.4714 13.138C10.3457 13.2594 10.1773 13.3266 10.0025 13.3251C9.82766 13.3236 9.66045 13.2535 9.53685 13.1299C9.41324 13.0062 9.34313 12.839 9.34161 12.6642C9.34009 12.4894 9.40729 12.321 9.52873 12.1953L13.0574 8.66664H1.33339C1.15658 8.66664 0.987013 8.5964 0.861989 8.47138C0.736965 8.34635 0.666727 8.17678 0.666727 7.99997C0.666727 7.82316 0.736965 7.65359 0.861989 7.52857C0.987013 7.40354 1.15658 7.33331 1.33339 7.33331Z" fill="white"/>
</g>
<defs>
<clipPath id="clip0_94_308">
<rect width="16" height="16" fill="white" transform="matrix(-1 0 0 1 16 0)"/>
</clipPath>
</defs>
</svg>
