<svg width="24" height="24" viewBox="0 0 24 24" fill="none" xmlns="http://www.w3.org/2000/svg">
<path d="M12 16.5C14.0711 16.5 15.75 14.8211 15.75 12.75C15.75 10.6789 14.0711 9 12 9C9.92893 9 8.25 10.6789 8.25 12.75C8.25 14.8211 9.92893 16.5 12 16.5Z" fill="white"/>
<path d="M20.25 6.00001H18.177C18.0376 6.00046 17.901 5.96184 17.7824 5.88853C17.6639 5.81522 17.5683 5.71016 17.5065 5.58526L16.8353 4.24351C16.6495 3.86892 16.3626 3.55386 16.0069 3.33407C15.6512 3.11428 15.2411 2.99855 14.823 3.00001H9.177C8.7589 2.99855 8.34876 3.11428 7.99309 3.33407C7.63742 3.55386 7.35046 3.86892 7.16475 4.24351L6.48975 5.58526C6.42821 5.70958 6.3332 5.81427 6.21541 5.88754C6.09762 5.96081 5.96172 5.99976 5.823 6.00001H3.75C3.15326 6.00001 2.58097 6.23707 2.15901 6.65902C1.73705 7.08098 1.5 7.65328 1.5 8.25001V18.75C1.5 19.3468 1.73705 19.9191 2.15901 20.341C2.58097 20.763 3.15326 21 3.75 21H20.25C20.8467 21 21.419 20.763 21.841 20.341C22.2629 19.9191 22.5 19.3468 22.5 18.75V8.25001C22.5 7.65328 22.2629 7.08098 21.841 6.65902C21.419 6.23707 20.8467 6.00001 20.25 6.00001ZM12 18C10.9616 18 9.94661 17.6921 9.08326 17.1152C8.2199 16.5384 7.54699 15.7184 7.14963 14.7591C6.75227 13.7998 6.6483 12.7442 6.85088 11.7258C7.05345 10.7074 7.55346 9.77193 8.28769 9.0377C9.02192 8.30348 9.95738 7.80346 10.9758 7.60089C11.9942 7.39832 13.0498 7.50229 14.0091 7.89965C14.9684 8.29701 15.7883 8.96991 16.3652 9.83327C16.9421 10.6966 17.25 11.7117 17.25 12.75C17.2484 14.1419 16.6948 15.4763 15.7106 16.4606C14.7263 17.4448 13.3919 17.9984 12 18ZM19.5 9.75001C19.3517 9.75001 19.2067 9.70603 19.0833 9.62362C18.96 9.54121 18.8639 9.42407 18.8071 9.28703C18.7503 9.14998 18.7355 8.99918 18.7644 8.8537C18.7934 8.70821 18.8648 8.57457 18.9697 8.46968C19.0746 8.36479 19.2082 8.29336 19.3537 8.26442C19.4992 8.23549 19.65 8.25034 19.787 8.3071C19.9241 8.36387 20.0412 8.46 20.1236 8.58334C20.206 8.70667 20.25 8.85168 20.25 9.00001C20.25 9.19893 20.171 9.38969 20.0303 9.53034C19.8897 9.671 19.6989 9.75001 19.5 9.75001Z" fill="white"/>
</svg>
