<svg width="20" height="20" viewBox="0 0 20 20" fill="none" xmlns="http://www.w3.org/2000/svg">
<g clip-path="url(#clip0_149_3954)">
<path d="M15.5555 20H4.44443C3.25736 20 2.14127 19.5377 1.30177 18.6982C0.462309 17.8588 0 16.7427 0 15.5555V14.4444C0 13.8307 0.497435 13.3332 1.11112 13.3332C1.7248 13.3332 2.22224 13.8307 2.22224 14.4444V15.5555C2.22224 16.1491 2.45341 16.7071 2.87306 17.1268C3.29283 17.5466 3.85085 17.7778 4.44443 17.7778H15.5555C16.1491 17.7778 16.7071 17.5466 17.1268 17.1268C17.5466 16.7071 17.7778 16.149 17.7778 15.5555V14.4444C17.7778 13.8307 18.2752 13.3332 18.8888 13.3332C19.5025 13.3332 20 13.8307 20 14.4444V15.5555C20 16.7426 19.5377 17.8587 18.6982 18.6982C17.8587 19.5377 16.7426 20 15.5555 20ZM9.99998 15.5555C9.84628 15.5555 9.69995 15.5243 9.56682 15.4679C9.44262 15.4154 9.3259 15.3392 9.22379 15.2395C9.22375 15.2394 9.22375 15.2394 9.22371 15.2394C9.22297 15.2387 9.22223 15.238 9.2215 15.2372C9.2213 15.2371 9.22107 15.2368 9.22087 15.2366C9.22025 15.2361 9.21971 15.2355 9.21913 15.2349C9.21874 15.2345 9.21839 15.2342 9.218 15.2338C9.21761 15.2334 9.21711 15.2329 9.21676 15.2326C9.21598 15.2318 9.21513 15.2309 9.21435 15.2302L4.76988 10.7856C4.33599 10.3517 4.33599 9.64821 4.76988 9.21428C5.20378 8.78038 5.90736 8.78034 6.34125 9.21428L8.8889 11.7619V1.11112C8.88886 0.497435 9.3863 0 9.99998 0C10.6137 0 11.1111 0.497435 11.1111 1.11112V11.7619L13.6587 9.21428C14.0926 8.78038 14.7963 8.78038 15.2301 9.21428C15.664 9.64817 15.664 10.3517 15.2301 10.7856L10.7856 15.2301C10.7849 15.2309 10.784 15.2317 10.7832 15.2325C10.7828 15.2329 10.7823 15.2334 10.782 15.2337C10.7816 15.2341 10.7813 15.2344 10.7809 15.2348C10.7803 15.2354 10.7797 15.236 10.7792 15.2365C10.779 15.2367 10.7787 15.237 10.7785 15.2371C10.7778 15.2379 10.7771 15.2386 10.7763 15.2393C10.7763 15.2393 10.7763 15.2394 10.7763 15.2394C10.764 15.2513 10.7516 15.2629 10.739 15.2741C10.646 15.3571 10.5423 15.4218 10.4328 15.468C10.4324 15.4682 10.4321 15.4683 10.4317 15.4685C10.4312 15.4686 10.4309 15.4689 10.4305 15.469C10.298 15.5247 10.1526 15.5555 9.99998 15.5555Z" fill="white"/>
</g>
<defs>
<clipPath id="clip0_149_3954">
<rect width="20" height="20" fill="white"/>
</clipPath>
</defs>
</svg>
