<svg width="20" height="20" viewBox="0 0 20 20" fill="none" xmlns="http://www.w3.org/2000/svg">
<path d="M15.8335 5.83331C15.6125 5.83331 15.4005 5.92111 15.2442 6.07739C15.088 6.23367 15.0002 6.44563 15.0002 6.66665V15.9925C14.9763 16.4139 14.7868 16.8088 14.4731 17.0911C14.1593 17.3735 13.7467 17.5204 13.3252 17.5H6.67516C6.25358 17.5204 5.84098 17.3735 5.52725 17.0911C5.21352 16.8088 5.02407 16.4139 5.00016 15.9925V6.66665C5.00016 6.44563 4.91237 6.23367 4.75608 6.07739C4.5998 5.92111 4.38784 5.83331 4.16683 5.83331C3.94582 5.83331 3.73385 5.92111 3.57757 6.07739C3.42129 6.23367 3.3335 6.44563 3.3335 6.66665V15.9925C3.35728 16.856 3.72231 17.6749 4.34865 18.2698C4.97498 18.8648 5.81156 19.1873 6.67516 19.1666H13.3252C14.1888 19.1873 15.0253 18.8648 15.6517 18.2698C16.278 17.6749 16.643 16.856 16.6668 15.9925V6.66665C16.6668 6.44563 16.579 6.23367 16.4228 6.07739C16.2665 5.92111 16.0545 5.83331 15.8335 5.83331Z" fill="white"/>
<path d="M16.6667 3.33331H13.3333V1.66665C13.3333 1.44563 13.2455 1.23367 13.0893 1.07739C12.933 0.92111 12.721 0.833313 12.5 0.833313H7.5C7.27899 0.833313 7.06702 0.92111 6.91074 1.07739C6.75446 1.23367 6.66667 1.44563 6.66667 1.66665V3.33331H3.33333C3.11232 3.33331 2.90036 3.42111 2.74408 3.57739C2.5878 3.73367 2.5 3.94563 2.5 4.16665C2.5 4.38766 2.5878 4.59962 2.74408 4.7559C2.90036 4.91218 3.11232 4.99998 3.33333 4.99998H16.6667C16.8877 4.99998 17.0996 4.91218 17.2559 4.7559C17.4122 4.59962 17.5 4.38766 17.5 4.16665C17.5 3.94563 17.4122 3.73367 17.2559 3.57739C17.0996 3.42111 16.8877 3.33331 16.6667 3.33331ZM8.33333 3.33331V2.49998H11.6667V3.33331H8.33333Z" fill="white"/>
<path d="M9.16667 14.1667V8.33333C9.16667 8.11232 9.07887 7.90036 8.92259 7.74408C8.76631 7.5878 8.55435 7.5 8.33333 7.5C8.11232 7.5 7.90036 7.5878 7.74408 7.74408C7.5878 7.90036 7.5 8.11232 7.5 8.33333V14.1667C7.5 14.3877 7.5878 14.5996 7.74408 14.7559C7.90036 14.9122 8.11232 15 8.33333 15C8.55435 15 8.76631 14.9122 8.92259 14.7559C9.07887 14.5996 9.16667 14.3877 9.16667 14.1667Z" fill="white"/>
<path d="M12.5002 14.1667V8.33333C12.5002 8.11232 12.4124 7.90036 12.2561 7.74408C12.0998 7.5878 11.8878 7.5 11.6668 7.5C11.4458 7.5 11.2339 7.5878 11.0776 7.74408C10.9213 7.90036 10.8335 8.11232 10.8335 8.33333V14.1667C10.8335 14.3877 10.9213 14.5996 11.0776 14.7559C11.2339 14.9122 11.4458 15 11.6668 15C11.8878 15 12.0998 14.9122 12.2561 14.7559C12.4124 14.5996 12.5002 14.3877 12.5002 14.1667Z" fill="white"/>
</svg>
