<svg width="24" height="24" viewBox="0 0 24 24" fill="none" xmlns="http://www.w3.org/2000/svg">
<path d="M6.98438 15.7266C6.98359 15.9822 7.05877 16.2322 7.20038 16.445C7.342 16.6578 7.54365 16.8237 7.77973 16.9216C8.01582 17.0196 8.27569 17.0452 8.52634 16.9951C8.77699 16.9451 9.00712 16.8217 9.18751 16.6406L17.7188 8.10422V6.28125H15.8958L7.36173 14.8148C7.24173 14.9344 7.14659 15.0765 7.08183 15.2329C7.01706 15.3894 6.98394 15.5572 6.98438 15.7266Z" fill="white"/>
<path d="M20.1797 3H12.9141C12.5722 3 12.2443 3.13581 12.0026 3.37756C11.7608 3.6193 11.625 3.94718 11.625 4.28906C11.625 4.63094 11.7608 4.95882 12.0026 5.20057C12.2443 5.44231 12.5722 5.57812 12.9141 5.57812H18.4219V11.0859C18.4219 11.4278 18.5577 11.7557 18.7994 11.9974C19.0412 12.2392 19.3691 12.375 19.7109 12.375C20.0528 12.375 20.3807 12.2392 20.6224 11.9974C20.8642 11.7557 21 11.4278 21 11.0859V3.82031C20.9998 3.60283 20.9132 3.39432 20.7595 3.24054C20.6057 3.08675 20.3972 3.00025 20.1797 3Z" fill="white"/>
<path d="M19.7109 13.9922C19.3692 13.9927 19.0416 14.1287 18.8 14.3703C18.5583 14.6119 18.4224 14.9395 18.4219 15.2812V18.4219H5.57812V5.57812H8.71875C9.06063 5.57812 9.38851 5.44231 9.63025 5.20057C9.872 4.95882 10.0078 4.63094 10.0078 4.28906C10.0078 3.94718 9.872 3.6193 9.63025 3.37756C9.38851 3.13581 9.06063 3 8.71875 3H4.28906C3.94733 3.0005 3.61974 3.13647 3.37811 3.37811C3.13647 3.61974 3.0005 3.94733 3 4.28906V19.7109C3.0005 20.0527 3.13647 20.3803 3.37811 20.6219C3.61974 20.8635 3.94733 20.9995 4.28906 21H19.7109C20.0527 20.9995 20.3803 20.8635 20.6219 20.6219C20.8635 20.3803 20.9995 20.0527 21 19.7109V15.2812C20.9995 14.9395 20.8635 14.6119 20.6219 14.3703C20.3803 14.1287 20.0527 13.9927 19.7109 13.9922Z" fill="white"/>
</svg>
