<svg width="24" height="24" viewBox="0 0 24 24" fill="none" xmlns="http://www.w3.org/2000/svg">
<g clip-path="url(#clip0_125_4511)">
<path d="M6.25039 19.4999C4.64939 19.4999 3.22539 18.4749 2.70839 16.9489L2.67339 16.8339C2.55139 16.4299 2.50039 16.0899 2.50039 15.7499V8.93188L0.0743879 17.0299C-0.237612 18.2209 0.473388 19.4559 1.66639 19.7849L17.1294 23.9259C17.3224 23.9759 17.5154 23.9999 17.7054 23.9999C18.7014 23.9999 19.6114 23.3389 19.8664 22.3649L20.7674 19.4999H6.25039Z" fill="white"/>
<path d="M9 9C10.103 9 11 8.103 11 7C11 5.897 10.103 5 9 5C7.897 5 7 5.897 7 7C7 8.103 7.897 9 9 9Z" fill="white"/>
<path d="M21.5 2H6.5C5.122 2 4 3.122 4 4.5V15.5C4 16.878 5.122 18 6.5 18H21.5C22.878 18 24 16.878 24 15.5V4.5C24 3.122 22.878 2 21.5 2ZM6.5 4H21.5C21.776 4 22 4.224 22 4.5V11.599L18.841 7.913C18.506 7.52 18.021 7.31 17.5 7.298C16.982 7.301 16.496 7.531 16.164 7.929L12.45 12.387L11.24 11.18C10.556 10.496 9.443 10.496 8.76 11.18L6 13.939V4.5C6 4.224 6.224 4 6.5 4Z" fill="white"/>
</g>
<defs>
<clipPath id="clip0_125_4511">
<rect width="24" height="24" fill="white"/>
</clipPath>
</defs>
</svg>
