<svg width="24" height="24" viewBox="0 0 24 24" fill="none" xmlns="http://www.w3.org/2000/svg">
<path d="M9.97051 5.577L10.5728 7.2495C11.2418 9.10575 12.7035 10.5675 14.5598 11.2365L16.2323 11.8388C16.383 11.8935 16.383 12.1073 16.2323 12.1613L14.5598 12.7635C12.7035 13.4325 11.2418 14.8943 10.5728 16.7505L9.97051 18.423C9.91576 18.5738 9.70201 18.5738 9.64801 18.423L9.04576 16.7505C8.37676 14.8943 6.91501 13.4325 5.05876 12.7635L3.38626 12.1613C3.23551 12.1065 3.23551 11.8928 3.38626 11.8388L5.05876 11.2365C6.91501 10.5675 8.37676 9.10575 9.04576 7.2495L9.64801 5.577C9.70201 5.4255 9.91576 5.4255 9.97051 5.577Z" fill="white"/>
<path d="M17.4991 1.55775L17.8043 2.4045C18.1433 3.34425 18.8836 4.0845 19.8233 4.4235L20.6701 4.72875C20.7466 4.7565 20.7466 4.8645 20.6701 4.89225L19.8233 5.1975C18.8836 5.5365 18.1433 6.27675 17.8043 7.2165L17.4991 8.06325C17.4713 8.13975 17.3633 8.13975 17.3356 8.06325L17.0303 7.2165C16.6913 6.27675 15.9511 5.5365 15.0113 5.1975L14.1646 4.89225C14.0881 4.8645 14.0881 4.7565 14.1646 4.72875L15.0113 4.4235C15.9511 4.0845 16.6913 3.34425 17.0303 2.4045L17.3356 1.55775C17.3633 1.4805 17.4721 1.4805 17.4991 1.55775Z" fill="white"/>
<path d="M17.4991 15.9375L17.8043 16.7843C18.1433 17.724 18.8836 18.4643 19.8233 18.8033L20.6701 19.1085C20.7466 19.1363 20.7466 19.2443 20.6701 19.272L19.8233 19.5773C18.8836 19.9163 18.1433 20.6565 17.8043 21.5963L17.4991 22.443C17.4713 22.5195 17.3633 22.5195 17.3356 22.443L17.0303 21.5963C16.6913 20.6565 15.9511 19.9163 15.0113 19.5773L14.1646 19.272C14.0881 19.2443 14.0881 19.1363 14.1646 19.1085L15.0113 18.8033C15.9511 18.4643 16.6913 17.724 17.0303 16.7843L17.3356 15.9375C17.3633 15.861 17.4721 15.861 17.4991 15.9375Z" fill="white"/>
</svg>
