<svg width="16" height="16" viewBox="0 0 16 16" fill="none" xmlns="http://www.w3.org/2000/svg">
<g clip-path="url(#clip0_96_1191)">
<path d="M15.4417 5.18475L14.3167 3.67742L14.9207 1.89625C14.9607 1.77843 14.9669 1.65177 14.9386 1.5306C14.9103 1.40944 14.8487 1.2986 14.7607 1.21064C14.6727 1.12267 14.5619 1.06109 14.4407 1.03285C14.3195 1.00461 14.1929 1.01084 14.0751 1.05084L12.2942 1.65484L10.787 0.529838C10.6873 0.455438 10.5687 0.410416 10.4448 0.399864C10.3209 0.389312 10.1964 0.413651 10.0856 0.470128C9.97474 0.526605 9.88192 0.612967 9.8176 0.719449C9.75328 0.825931 9.72004 0.948283 9.72164 1.07267L9.74564 2.95334L8.21006 4.03942C8.10849 4.11124 8.02905 4.21005 7.98071 4.32467C7.93237 4.43928 7.91707 4.56514 7.93652 4.688C7.95598 4.81086 8.00942 4.92583 8.09081 5.0199C8.17219 5.11398 8.27827 5.18341 8.39706 5.22034L9.49555 5.562L0.195557 14.862L1.13839 15.8048L10.4234 6.51967L10.7514 7.57467C10.7883 7.6934 10.8577 7.79945 10.9517 7.88082C11.0457 7.9622 11.1606 8.01566 11.2834 8.03517C11.3179 8.04071 11.3528 8.0435 11.3877 8.0435C11.4944 8.04349 11.5994 8.0179 11.6941 7.96888C11.7888 7.91985 11.8704 7.84882 11.932 7.76175L13.018 6.22617L14.8989 6.25017H14.9072C15.0309 6.25015 15.1521 6.21574 15.2573 6.15077C15.3626 6.0858 15.4477 5.99285 15.5031 5.8823C15.5585 5.77175 15.5821 5.64796 15.5712 5.52477C15.5603 5.40159 15.5154 5.28386 15.4414 5.18475H15.4417Z" fill="url(#paint0_linear_96_1191)"/>
<path d="M13.5399 10.7067C13.2256 10.7042 12.9251 10.577 12.7043 10.3532C12.4836 10.1294 12.3606 9.82721 12.3624 9.51286C12.3624 9.46866 12.3448 9.42626 12.3136 9.39501C12.2823 9.36375 12.2399 9.34619 12.1957 9.34619C12.1515 9.34619 12.1091 9.36375 12.0779 9.39501C12.0466 9.42626 12.0291 9.46866 12.0291 9.51286C12.0309 9.82722 11.9079 10.1295 11.6871 10.3533C11.4664 10.5771 11.1658 10.7042 10.8515 10.7067C10.8073 10.7067 10.7649 10.7243 10.7336 10.7555C10.7024 10.7868 10.6848 10.8292 10.6848 10.8734C10.6848 10.9176 10.7024 10.96 10.7336 10.9912C10.7649 11.0225 10.8073 11.04 10.8515 11.04C11.1658 11.0426 11.4662 11.1696 11.687 11.3934C11.9077 11.6171 12.0308 11.9192 12.0291 12.2335C12.0291 12.2777 12.0466 12.3201 12.0779 12.3514C12.1091 12.3826 12.1515 12.4002 12.1957 12.4002C12.2399 12.4002 12.2823 12.3826 12.3136 12.3514C12.3448 12.3201 12.3624 12.2777 12.3624 12.2335C12.3606 11.9192 12.4836 11.617 12.7043 11.3932C12.9251 11.1694 13.2256 11.0422 13.5399 11.0397C13.5841 11.0397 13.6265 11.0221 13.6577 10.9909C13.689 10.9596 13.7066 10.9172 13.7066 10.873C13.7066 10.8288 13.689 10.7864 13.6577 10.7552C13.6265 10.7239 13.5841 10.7064 13.5399 10.7064V10.7067Z" fill="url(#paint1_linear_96_1191)"/>
<path d="M5.35148 1.70653C5.66577 1.70906 5.96624 1.83612 6.18698 2.05986C6.40773 2.28359 6.53075 2.58573 6.52906 2.90003C6.52906 2.94423 6.54662 2.98662 6.57788 3.01788C6.60914 3.04914 6.65153 3.06669 6.69573 3.06669C6.73993 3.06669 6.78233 3.04914 6.81358 3.01788C6.84484 2.98662 6.8624 2.94423 6.8624 2.90003C6.86062 2.58569 6.98359 2.28347 7.20433 2.05967C7.42507 1.83587 7.72556 1.70875 8.0399 1.7062C8.0841 1.7062 8.12649 1.68864 8.15775 1.65738C8.189 1.62612 8.20656 1.58373 8.20656 1.53953C8.20656 1.49533 8.189 1.45293 8.15775 1.42168C8.12649 1.39042 8.0841 1.37286 8.0399 1.37286C7.72561 1.37033 7.42516 1.24326 7.20442 1.01953C6.98369 0.795793 6.86069 0.493652 6.8624 0.179362C6.8624 0.135159 6.84484 0.0927669 6.81358 0.0615108C6.78233 0.0302548 6.73993 0.0126953 6.69573 0.0126953C6.65153 0.0126953 6.60914 0.0302548 6.57788 0.0615108C6.54662 0.0927669 6.52906 0.135159 6.52906 0.179362C6.53086 0.493724 6.40789 0.795963 6.18713 1.01977C5.96636 1.24358 5.66584 1.37068 5.35148 1.3732C5.30728 1.3732 5.26489 1.39075 5.23363 1.42201C5.20237 1.45327 5.18481 1.49566 5.18481 1.53986C5.18481 1.58406 5.20237 1.62646 5.23363 1.65771C5.26489 1.68897 5.30728 1.70653 5.35148 1.70653Z" fill="url(#paint2_linear_96_1191)"/>
<path d="M1.18486 7.28987C1.49915 7.2924 1.79961 7.41947 2.02036 7.6432C2.24111 7.86693 2.36413 8.16907 2.36244 8.48337C2.36244 8.52757 2.38 8.56996 2.41125 8.60122C2.44251 8.63248 2.4849 8.65004 2.5291 8.65004C2.57331 8.65004 2.6157 8.63248 2.64696 8.60122C2.67821 8.56996 2.69577 8.52757 2.69577 8.48337C2.694 8.16903 2.81696 7.86681 3.0377 7.64301C3.25844 7.41921 3.55894 7.29209 3.87327 7.28954C3.91747 7.28954 3.95987 7.27198 3.99112 7.24072C4.02238 7.20946 4.03994 7.16707 4.03994 7.12287C4.03994 7.07867 4.02238 7.03627 3.99112 7.00502C3.95987 6.97376 3.91747 6.9562 3.87327 6.9562C3.55893 6.95367 3.25842 6.82656 3.03768 6.60275C2.81693 6.37894 2.69397 6.07672 2.69577 5.76237C2.69577 5.71817 2.67821 5.67577 2.64696 5.64452C2.6157 5.61326 2.57331 5.5957 2.5291 5.5957C2.4849 5.5957 2.44251 5.61326 2.41125 5.64452C2.38 5.67577 2.36244 5.71817 2.36244 5.76237C2.36432 6.07679 2.24139 6.37911 2.02062 6.603C1.79985 6.82688 1.49927 6.95403 1.18486 6.95654C1.14065 6.95654 1.09826 6.9741 1.067 7.00535C1.03575 7.03661 1.01819 7.079 1.01819 7.1232C1.01819 7.16741 1.03575 7.2098 1.067 7.24105C1.09826 7.27231 1.14065 7.28987 1.18486 7.28987Z" fill="url(#paint3_linear_96_1191)"/>
</g>
<defs>
<linearGradient id="paint0_linear_96_1191" x1="15.5738" y1="8.10115" x2="0.195557" y2="8.10115" gradientUnits="userSpaceOnUse">
<stop stop-color="#2BC5C5"/>
<stop offset="1" stop-color="#24C780"/>
</linearGradient>
<linearGradient id="paint1_linear_96_1191" x1="13.7066" y1="10.8732" x2="10.6848" y2="10.8732" gradientUnits="userSpaceOnUse">
<stop stop-color="#2BC5C5"/>
<stop offset="1" stop-color="#24C780"/>
</linearGradient>
<linearGradient id="paint2_linear_96_1191" x1="8.20656" y1="1.53969" x2="5.18481" y2="1.53969" gradientUnits="userSpaceOnUse">
<stop stop-color="#2BC5C5"/>
<stop offset="1" stop-color="#24C780"/>
</linearGradient>
<linearGradient id="paint3_linear_96_1191" x1="4.03994" y1="7.12287" x2="1.01819" y2="7.12287" gradientUnits="userSpaceOnUse">
<stop stop-color="#2BC5C5"/>
<stop offset="1" stop-color="#24C780"/>
</linearGradient>
<clipPath id="clip0_96_1191">
<rect width="16" height="16" fill="white"/>
</clipPath>
</defs>
</svg>
