<svg width="22" height="22" viewBox="0 0 22 22" fill="none" xmlns="http://www.w3.org/2000/svg">
<path d="M19.8249 2.17556C19.5223 1.87314 19.1631 1.6333 18.7678 1.46972C18.3725 1.30615 17.9488 1.22205 17.521 1.22223H4.47988C3.61651 1.22384 2.78896 1.56753 2.17846 2.17803C1.56796 2.78853 1.22427 3.61608 1.22266 4.47945V17.5206C1.22588 18.3834 1.57008 19.2101 2.18023 19.8202C2.79038 20.4304 3.617 20.7746 4.47988 20.7778H17.521C18.3844 20.7762 19.2119 20.4325 19.8224 19.822C20.4329 19.2115 20.7766 18.3839 20.7782 17.5206V4.47945C20.7784 4.05164 20.6943 3.62798 20.5307 3.23268C20.3671 2.83737 20.1273 2.47816 19.8249 2.17556ZM19.4704 13.6095L16.8549 11.9595C16.4782 11.7163 16.0291 11.6108 15.5836 11.661C15.1381 11.7111 14.7236 11.9137 14.4104 12.2345L12.956 13.7195L13.8727 14.6667L15.3577 13.1817C15.4615 13.0768 15.5981 13.0105 15.7449 12.9938C15.8916 12.9771 16.0396 13.0111 16.1643 13.09L19.4704 15.18V17.545C19.4704 18.0637 19.2644 18.5611 18.8977 18.9278C18.5309 19.2945 18.0335 19.5006 17.5149 19.5006H4.47988C3.96123 19.5006 3.46383 19.2945 3.09709 18.9278C2.73035 18.5611 2.52432 18.0637 2.52432 17.545V15.1006L6.11155 11.4706C6.23599 11.3546 6.39977 11.2901 6.56988 11.2901C6.73999 11.2901 6.90377 11.3546 7.02821 11.4706L13.5793 18.0156L14.5021 17.1111L7.81655 10.4195C7.43981 10.1202 6.96599 9.97036 6.4857 9.99855C6.00541 10.0267 5.55236 10.231 5.21321 10.5722L2.52432 13.2183V4.47945C2.52432 3.96081 2.73035 3.4634 3.09709 3.09667C3.46383 2.72993 3.96123 2.5239 4.47988 2.5239H17.521C18.0396 2.5239 18.537 2.72993 18.9038 3.09667C19.2705 3.4634 19.4765 3.96081 19.4765 4.47945L19.4704 13.6095Z" fill="#B1B1B1"/>
<path d="M12.308 3.82556C11.6638 3.82556 11.034 4.01659 10.4984 4.3745C9.96274 4.73241 9.54526 5.24112 9.29872 5.8363C9.05219 6.43148 8.98769 7.0864 9.11337 7.71824C9.23905 8.35008 9.54927 8.93046 10.0048 9.38599C10.4603 9.84152 11.0407 10.1517 11.6726 10.2774C12.3044 10.4031 12.9593 10.3386 13.5545 10.0921C14.1497 9.84553 14.6584 9.42805 15.0163 8.8924C15.3742 8.35675 15.5652 7.727 15.5652 7.08278C15.5636 6.21941 15.2199 5.39186 14.6094 4.78136C13.9989 4.17087 13.1714 3.82718 12.308 3.82556ZM12.308 9.03834C11.9212 9.03834 11.5431 8.92365 11.2216 8.70877C10.9 8.49389 10.6493 8.18847 10.5013 7.83114C10.3533 7.47381 10.3146 7.08061 10.39 6.70127C10.4655 6.32193 10.6517 5.97349 10.9252 5.7C11.1987 5.42651 11.5472 5.24026 11.9265 5.1648C12.3058 5.08935 12.699 5.12807 13.0564 5.27609C13.4137 5.4241 13.7191 5.67475 13.934 5.99633C14.1489 6.31792 14.2636 6.69601 14.2636 7.08278C14.2644 7.3401 14.2144 7.59505 14.1165 7.83302C14.0185 8.07098 13.8746 8.28728 13.693 8.46952C13.5113 8.65176 13.2954 8.79635 13.0578 8.89501C12.8201 8.99367 12.5653 9.04445 12.308 9.04445V9.03834Z" fill="#B1B1B1"/>
</svg>
