<svg width="22" height="22" viewBox="0 0 22 22" fill="none" xmlns="http://www.w3.org/2000/svg">
<g clip-path="url(#clip0_152_5008)">
<path fill-rule="evenodd" clip-rule="evenodd" d="M10.3554 4.76956C9.28116 4.76956 8.55069 3.99612 8.33585 3.13674C8.12101 2.14846 8.59366 0.945337 9.92569 0.644556C10.4843 0.515649 11.0429 0.601587 11.5155 0.902368C11.9882 1.20315 12.3319 1.67581 12.4179 2.19143C12.5468 2.75002 12.4608 3.30862 12.1601 3.78127C11.8593 4.25393 11.3866 4.59768 10.871 4.72659C10.6562 4.76956 10.4843 4.76956 10.3554 4.76956Z" fill="white"/>
<path fill-rule="evenodd" clip-rule="evenodd" d="M2.19141 14.0508C1.24609 14.0508 0.429688 13.4062 0.429688 12.6328C0.429688 12.2031 0.730469 11.7734 1.16016 11.4727C1.54688 11.2578 1.97656 11.1719 2.36328 11.2578V6.23047C2.36328 6.05859 2.49219 5.92969 2.66406 5.92969C2.83594 5.92969 2.96484 6.05859 2.96484 6.23047C2.96484 6.83203 3.48047 7.04688 4.29688 7.43359C5.28516 7.82031 6.48828 8.37891 6.10156 10.0117C5.80078 11.3438 5.28516 11.5586 5.02734 11.6016C4.76953 11.6016 4.51172 11.4727 4.38281 11.1719C4.33984 11.043 4.33984 10.9141 4.42578 10.8281C4.51172 10.7422 4.76953 10.3984 4.25391 9.88281C4.125 9.71094 4.03906 9.625 3.95312 9.58203V12.6328C3.95312 13.4062 3.17969 14.0508 2.19141 14.0508Z" fill="white"/>
<path fill-rule="evenodd" clip-rule="evenodd" d="M17.5742 11.3438C16.5859 11.3438 15.8125 10.6992 15.8125 9.88281C15.8125 9.45312 16.0703 9.06641 16.5 8.80859C16.8867 8.55078 17.3594 8.46484 17.7461 8.50781V3.52344C17.7461 3.35156 17.875 3.22266 18.0469 3.22266C18.2188 3.22266 18.3477 3.35156 18.3477 3.52344C18.3477 4.08203 18.8633 4.33984 19.6797 4.68359C20.1953 4.89844 20.7109 5.11328 21.0977 5.5C21.5273 5.92969 21.6562 6.53125 21.4844 7.26172C21.1836 8.50781 20.7539 8.80859 20.4102 8.85156C20.1523 8.89453 19.8945 8.72266 19.7656 8.42188C19.7227 8.29297 19.7227 8.16406 19.8086 8.07812C19.8945 8.03516 20.1523 7.64844 19.6367 7.13281C19.5078 6.96094 19.4219 6.875 19.3359 6.83203V9.88281C19.3359 10.6992 18.5625 11.3438 17.5742 11.3438Z" fill="white"/>
<path fill-rule="evenodd" clip-rule="evenodd" d="M9.02299 22C8.85111 22 8.72221 22 8.55033 21.957C8.55033 21.957 8.55033 21.957 8.55033 21.9141C7.47611 21.5274 6.78861 19.25 6.65971 18.8203C5.97221 16.1133 6.61674 14.0938 6.96049 12.8906C7.08939 12.5469 7.17533 12.2891 7.17533 12.1172V7.64845C6.18705 6.91798 5.1558 5.32814 4.59721 3.73829C3.99564 2.10548 3.95267 0.945325 4.4683 0.386731C4.72611 0.0859502 5.11283 -0.0429561 5.49955 0.0429814C6.01517 0.128919 6.44486 0.472669 6.61674 0.945325C6.70267 1.20314 6.74564 1.46095 6.78861 1.76173C6.96049 2.44923 7.08939 3.26564 7.94877 4.29689C7.99174 4.38283 7.99174 4.42579 8.03471 4.46876C8.24955 4.72658 8.29252 4.76954 8.76517 4.85548C9.62455 5.02736 10.5269 5.2422 11.4292 5.45704C11.9449 5.54298 13.2339 5.45704 13.8355 5.28517C13.7495 5.11329 13.6636 4.85548 13.5777 4.59767C13.105 3.26564 12.7613 2.19142 13.148 1.63283H13.191C13.4058 1.28908 13.7925 1.1172 14.2222 1.1172C14.6089 1.1172 14.9956 1.28908 15.2535 1.63283C15.5113 2.01954 15.6831 2.57814 15.855 3.09376C15.855 3.22267 15.898 3.30861 15.941 3.43751C16.0699 3.82423 16.1988 4.16798 16.2847 4.46876C16.7574 5.80079 17.0152 6.48829 16.7144 7.04689C16.3277 7.64845 15.3394 7.73439 12.9331 7.9922C12.8472 7.9922 12.7613 7.9922 12.6324 7.9922C12.6324 9.23829 12.6324 10.4844 12.5894 11.7734C12.5894 12.7188 12.7613 13.4922 12.9331 14.3516C12.9761 14.5234 13.0191 14.6953 13.0191 14.8672C13.4917 14.6094 14.0503 14.2227 14.3941 13.9649C14.48 13.8789 14.566 13.8359 14.6089 13.793C15.1675 13.3633 15.7261 13.1914 16.1988 13.3203C16.4566 13.4063 16.8433 13.6211 17.0581 14.2227C17.4449 15.2969 16.5855 15.8984 16.0699 16.2422C15.9839 16.2852 15.941 16.3711 15.855 16.4141C15.3394 16.7578 14.7378 17.1445 13.9644 17.5742H13.9214L13.8355 17.6172C13.4488 17.875 12.8902 18.1328 12.3316 18.1328C11.9878 18.1328 11.687 18.0469 11.3863 17.7891C10.6988 17.2735 10.5699 16.2852 10.441 15.4258C10.355 14.9531 10.312 14.4805 10.1402 14.3086C10.0542 14.2227 9.92533 14.1367 9.79642 14.1367C9.66752 14.1367 9.58158 14.1797 9.49564 14.2656C9.2808 14.4805 9.19486 15.9414 9.23783 16.7149C9.36674 17.961 9.75346 18.7344 10.0972 19.3789C10.4839 20.1524 10.8277 20.8399 10.0542 21.5703C9.75346 21.8711 9.40971 22 9.02299 22Z" fill="white"/>
</g>
<defs>
<clipPath id="clip0_152_5008">
<rect width="22" height="22" fill="white"/>
</clipPath>
</defs>
</svg>
