<svg width="40" height="40" viewBox="0 0 40 40" fill="none" xmlns="http://www.w3.org/2000/svg">
<path d="M14.9993 17.9167C12.466 17.9167 10.416 15.8667 10.416 13.3333C10.416 10.8 12.466 8.75 14.9993 8.75C17.5327 8.75 19.5827 10.8 19.5827 13.3333C19.5827 15.8667 17.5327 17.9167 14.9993 17.9167ZM14.9993 11.25C13.8493 11.25 12.916 12.1833 12.916 13.3333C12.916 14.4833 13.8493 15.4167 14.9993 15.4167C16.1493 15.4167 17.0827 14.4833 17.0827 13.3333C17.0827 12.1833 16.1493 11.25 14.9993 11.25Z" fill="#B1B1B1"/>
<path d="M24.9997 37.9167H14.9997C5.94967 37.9167 2.08301 34.05 2.08301 25V15C2.08301 5.95001 5.94967 2.08334 14.9997 2.08334H21.6663C22.3497 2.08334 22.9163 2.65001 22.9163 3.33334C22.9163 4.01668 22.3497 4.58334 21.6663 4.58334H14.9997C7.31634 4.58334 4.58301 7.31668 4.58301 15V25C4.58301 32.6833 7.31634 35.4167 14.9997 35.4167H24.9997C32.683 35.4167 35.4163 32.6833 35.4163 25V16.6667C35.4163 15.9833 35.983 15.4167 36.6663 15.4167C37.3497 15.4167 37.9163 15.9833 37.9163 16.6667V25C37.9163 34.05 34.0497 37.9167 24.9997 37.9167Z" fill="#B1B1B1"/>
<path d="M35.4167 9.58334H26.25C25.5667 9.58334 25 9.01668 25 8.33334C25 7.65001 25.5667 7.08334 26.25 7.08334H35.4167C36.1 7.08334 36.6667 7.65001 36.6667 8.33334C36.6667 9.01668 36.1 9.58334 35.4167 9.58334Z" fill="#B1B1B1"/>
<path d="M30.833 14.1667C30.1497 14.1667 29.583 13.6 29.583 12.9167V3.75C29.583 3.06667 30.1497 2.5 30.833 2.5C31.5163 2.5 32.083 3.06667 32.083 3.75V12.9167C32.083 13.6 31.5163 14.1667 30.833 14.1667Z" fill="#B1B1B1"/>
<path d="M4.44886 32.8335C4.04886 32.8335 3.64886 32.6335 3.41553 32.2835C3.03219 31.7168 3.18219 30.9335 3.74886 30.5502L11.9655 25.0335C13.7655 23.8335 16.2489 23.9668 17.8822 25.3502L18.4322 25.8335C19.2655 26.5502 20.6822 26.5502 21.4989 25.8335L28.4322 19.8835C30.2155 18.3668 32.9822 18.3668 34.7655 19.8835L37.4822 22.2168C37.9989 22.6668 38.0655 23.4502 37.6155 23.9835C37.1655 24.5002 36.3822 24.5668 35.8489 24.1168L33.1322 21.7835C32.2989 21.0668 30.8822 21.0668 30.0655 21.7835L23.1322 27.7335C21.3655 29.2502 18.5822 29.2502 16.7989 27.7335L16.2489 27.2502C15.4822 26.6002 14.2155 26.5335 13.3655 27.1168L5.16553 32.6335C4.93219 32.7668 4.68219 32.8335 4.44886 32.8335Z" fill="#B1B1B1"/>
</svg>
