<svg width="24" height="24" viewBox="0 0 24 24" fill="none" xmlns="http://www.w3.org/2000/svg">
<path fill-rule="evenodd" clip-rule="evenodd" d="M22.75 16.5V4.5C22.75 3.533 21.966 2.75 21 2.75C17.586 2.75 6.414 2.75 3 2.75C2.034 2.75 1.25 3.533 1.25 4.5V16.5C1.25 17.467 2.034 18.25 3 18.25H21C21.966 18.25 22.75 17.467 22.75 16.5ZM21.25 4.5V16.5C21.25 16.638 21.138 16.75 21 16.75H3C2.862 16.75 2.75 16.638 2.75 16.5V4.5C2.75 4.362 2.862 4.25 3 4.25H21C21.138 4.25 21.25 4.362 21.25 4.5Z" fill="url(#paint0_linear_96_1213)"/>
<path fill-rule="evenodd" clip-rule="evenodd" d="M17 19.75H7C6.586 19.75 6.25 20.086 6.25 20.5C6.25 20.914 6.586 21.25 7 21.25H17C17.414 21.25 17.75 20.914 17.75 20.5C17.75 20.086 17.414 19.75 17 19.75Z" fill="url(#paint1_linear_96_1213)"/>
<path fill-rule="evenodd" clip-rule="evenodd" d="M5.75 7.5V13.5C5.75 13.914 6.086 14.25 6.5 14.25C6.914 14.25 7.25 13.914 7.25 13.5V7.5C7.25 7.086 6.914 6.75 6.5 6.75C6.086 6.75 5.75 7.086 5.75 7.5Z" fill="url(#paint2_linear_96_1213)"/>
<path fill-rule="evenodd" clip-rule="evenodd" d="M9.75 7.5V13.5C9.75 13.914 10.086 14.25 10.5 14.25C10.914 14.25 11.25 13.914 11.25 13.5V7.5C11.25 7.086 10.914 6.75 10.5 6.75C10.086 6.75 9.75 7.086 9.75 7.5Z" fill="url(#paint3_linear_96_1213)"/>
<path fill-rule="evenodd" clip-rule="evenodd" d="M10.5 9.75H6.5C6.086 9.75 5.75 10.086 5.75 10.5C5.75 10.914 6.086 11.25 6.5 11.25H10.5C10.914 11.25 11.25 10.914 11.25 10.5C11.25 10.086 10.914 9.75 10.5 9.75Z" fill="url(#paint4_linear_96_1213)"/>
<path fill-rule="evenodd" clip-rule="evenodd" d="M18.25 11.5V9.5C18.25 7.981 17.019 6.75 15.5 6.75C14.5 6.75 13.5 6.75 13.5 6.75C13.086 6.75 12.75 7.086 12.75 7.5V13.5C12.75 13.914 13.086 14.25 13.5 14.25H15.5C17.019 14.25 18.25 13.019 18.25 11.5ZM16.75 9.5V11.5C16.75 12.19 16.19 12.75 15.5 12.75H14.25V8.25H15.5C16.19 8.25 16.75 8.81 16.75 9.5Z" fill="url(#paint5_linear_96_1213)"/>
<defs>
<linearGradient id="paint0_linear_96_1213" x1="22.75" y1="10.5" x2="1.25" y2="10.5" gradientUnits="userSpaceOnUse">
<stop stop-color="#2BC5C5"/>
<stop offset="1" stop-color="#24C780"/>
</linearGradient>
<linearGradient id="paint1_linear_96_1213" x1="17.75" y1="20.5" x2="6.25" y2="20.5" gradientUnits="userSpaceOnUse">
<stop stop-color="#2BC5C5"/>
<stop offset="1" stop-color="#24C780"/>
</linearGradient>
<linearGradient id="paint2_linear_96_1213" x1="7.25" y1="10.5" x2="5.75" y2="10.5" gradientUnits="userSpaceOnUse">
<stop stop-color="#2BC5C5"/>
<stop offset="1" stop-color="#24C780"/>
</linearGradient>
<linearGradient id="paint3_linear_96_1213" x1="11.25" y1="10.5" x2="9.75" y2="10.5" gradientUnits="userSpaceOnUse">
<stop stop-color="#2BC5C5"/>
<stop offset="1" stop-color="#24C780"/>
</linearGradient>
<linearGradient id="paint4_linear_96_1213" x1="11.25" y1="10.5" x2="5.75" y2="10.5" gradientUnits="userSpaceOnUse">
<stop stop-color="#2BC5C5"/>
<stop offset="1" stop-color="#24C780"/>
</linearGradient>
<linearGradient id="paint5_linear_96_1213" x1="18.25" y1="10.5" x2="12.75" y2="10.5" gradientUnits="userSpaceOnUse">
<stop stop-color="#2BC5C5"/>
<stop offset="1" stop-color="#24C780"/>
</linearGradient>
</defs>
</svg>
