<svg width="24" height="24" viewBox="0 0 24 24" fill="none" xmlns="http://www.w3.org/2000/svg">
<path d="M21 4C20.4473 4 20 4.4478 20 5V6.0035C18.1432 3.5331 15.1985 2 12 2C7.29792 2 3.28712 5.1987 2.24712 9.7783C2.12502 10.3169 2.46292 10.853 3.00102 10.9751C3.07622 10.9922 3.15042 11 3.22362 11C3.67972 11 4.09272 10.6855 4.19822 10.2217C5.02932 6.5586 8.23832 4 12 4C14.8846 4 17.5016 5.5655 18.9143 8H17C16.4473 8 16 8.4478 16 9C16 9.5522 16.4473 10 17 10H21C21.5527 10 22 9.5522 22 9V5C22 4.4478 21.5527 4 21 4Z" fill="white"/>
<path d="M3 20C3.5527 20 4 19.5522 4 19V17.9748C5.8668 20.485 8.7882 22 12 22C16.7021 22 20.7129 18.8013 21.7529 14.2217C21.875 13.6831 21.5371 13.147 20.999 13.0249C20.4551 12.8994 19.9238 13.2397 19.8017 13.7783C18.9707 17.4414 15.7617 20 12 20C9.1144 20 6.522 18.4725 5.0919 16H7C7.5527 16 8 15.5522 8 15C8 14.4478 7.5527 14 7 14H3C2.4473 14 2 14.4478 2 15V19C2 19.5522 2.4473 20 3 20Z" fill="white"/>
</svg>
