<svg width="22" height="22" viewBox="0 0 22 22" fill="none" xmlns="http://www.w3.org/2000/svg">
<g clip-path="url(#clip0_152_4737)">
<path fill-rule="evenodd" clip-rule="evenodd" d="M14.1395 3.8783C14.0316 3.8783 13.8794 3.90998 13.5582 4.1837C13.2412 4.45383 12.7562 4.42612 12.4748 4.12182C12.1934 3.81753 12.2222 3.35187 12.5392 3.08175C12.9865 2.70058 13.4908 2.40482 14.1395 2.40482C14.7511 2.40482 15.2349 2.66781 15.6638 3.01822C16.0632 3.34467 16.4958 3.81592 17.0001 4.36552C17.0123 4.37873 17.0244 4.39198 17.0367 4.40528L19.7045 7.31199C20.3886 8.05734 20.9492 8.66813 21.3324 9.20782C21.7327 9.77168 22 10.3386 22 11.0002C22 11.6618 21.7327 12.2287 21.3324 12.7925C20.9492 13.3322 20.3886 13.943 19.7045 14.6883L17.0001 17.6348C16.4958 18.1844 16.0632 18.6556 15.6638 18.9822C15.2349 19.3326 14.7511 19.5955 14.1395 19.5955C13.4908 19.5955 12.9865 19.2997 12.5392 18.9186C12.2222 18.6485 12.1934 18.1828 12.4748 17.8785C12.7562 17.5742 13.2412 17.5465 13.5582 17.8166C13.8794 18.0903 14.0316 18.122 14.1395 18.122C14.2424 18.122 14.3836 18.0933 14.6689 17.86C14.9741 17.6107 15.3338 17.2214 15.885 16.6209L18.5197 13.7504C19.2452 12.9599 19.7411 12.4176 20.0641 11.9627C20.3762 11.5231 20.4651 11.2475 20.4651 11.0002C20.4651 10.7528 20.3762 10.4773 20.0641 10.0377C19.7411 9.58278 19.2452 9.04043 18.5197 8.24996L15.885 5.37941C15.3338 4.77885 14.9741 4.3896 14.6689 4.1403C14.3836 3.90712 14.2424 3.8783 14.1395 3.8783Z" fill="white"/>
<path fill-rule="evenodd" clip-rule="evenodd" d="M7.38791 4.14251C7.07948 4.39207 6.71597 4.78155 6.15944 5.382L3.49885 8.25252C2.76621 9.04299 2.2653 9.58543 1.93913 10.0404C1.62384 10.4801 1.53488 10.7548 1.53488 11.0001C1.53488 11.2454 1.62384 11.5199 1.93913 11.9597C2.2653 12.4147 2.76621 12.9572 3.49885 13.7476L6.15944 16.6182C6.71597 17.2186 7.07948 17.6081 7.38791 17.8576C7.67622 18.0909 7.8214 18.1219 7.93023 18.1219C8.03907 18.1219 8.18425 18.0909 8.47256 17.8576C8.78099 17.6081 9.14453 17.2186 9.70108 16.6182L12.3616 13.7476C13.0943 12.9572 13.5952 12.4147 13.9213 11.9597C14.2367 11.5199 14.3256 11.2454 14.3256 11.0001C14.3256 10.7548 14.2367 10.4801 13.9213 10.0404C13.5952 9.58543 13.0943 9.04299 12.3616 8.25252L9.70098 5.382C9.14453 4.78155 8.78099 4.39207 8.47256 4.14251C8.18425 3.90922 8.03907 3.87821 7.93023 3.87821C7.8214 3.87821 7.67622 3.90922 7.38791 4.14251ZM6.39873 3.01583C6.83168 2.66551 7.31766 2.40472 7.93023 2.40472C8.5428 2.40472 9.0288 2.66551 9.46174 3.01583C9.8649 3.34207 10.3015 3.81318 10.8111 4.36298L13.5419 7.30923C14.2327 8.05457 14.7987 8.66529 15.1857 9.20498C15.5897 9.76854 15.8605 10.3365 15.8605 11.0001C15.8605 11.6636 15.5897 12.2316 15.1857 12.7952C14.7987 13.3349 14.2327 13.9456 13.5418 14.691L10.811 17.6372C10.3015 18.187 9.8649 18.6581 9.46174 18.9843C9.0288 19.3346 8.5428 19.5954 7.93023 19.5954C7.31766 19.5954 6.83168 19.3346 6.39873 18.9843C5.99554 18.6581 5.55895 18.187 5.04943 17.6372L2.31865 14.6909C1.6278 13.9456 1.06173 13.3349 0.674786 12.7952C0.270733 12.2316 0 11.6636 0 11.0001C0 10.3365 0.270733 9.76854 0.674786 9.20498C1.06173 8.66529 1.6278 8.05457 2.31865 7.30923L5.01276 4.40252C5.02502 4.38929 5.03724 4.3761 5.04942 4.36296C5.55894 3.81317 5.99554 3.34206 6.39873 3.01583Z" fill="white"/>
</g>
<defs>
<clipPath id="clip0_152_4737">
<rect width="22" height="22" fill="white"/>
</clipPath>
</defs>
</svg>
