<svg width="22" height="22" viewBox="0 0 22 22" fill="none" xmlns="http://www.w3.org/2000/svg">
<path d="M15.8125 2.75H6.1875C4.29 2.75 2.75 4.29 2.75 6.1875V15.8125C2.75 17.71 4.29 19.25 6.1875 19.25H15.8125C17.71 19.25 19.25 17.71 19.25 15.8125V6.1875C19.25 4.29 17.71 2.75 15.8125 2.75ZM6.1875 4.125H15.8125C16.9469 4.125 17.875 5.05312 17.875 6.1875V8.25688H4.125V6.1875C4.125 5.05312 5.05312 4.125 6.1875 4.125ZM4.125 15.8125V9.63188H8.28438V17.875H6.1875C5.05312 17.875 4.125 16.9469 4.125 15.8125ZM15.8125 17.875H9.65938V9.63188H17.875V15.8125C17.875 16.9469 16.9469 17.875 15.8125 17.875Z" fill="white"/>
</svg>
