<svg width="40" height="40" viewBox="0 0 40 40" fill="none" xmlns="http://www.w3.org/2000/svg">
<path fill-rule="evenodd" clip-rule="evenodd" d="M20 4.5835C11.4857 4.5835 4.58337 11.4858 4.58337 20.0002C4.58337 28.5145 11.4857 35.4168 20 35.4168C21.1792 35.4168 22.3262 35.2847 23.4272 35.0348C24.1004 34.882 24.77 35.304 24.9227 35.9772C25.0755 36.6505 24.6535 37.3202 23.9804 37.4728C22.699 37.7637 21.3667 37.9168 20 37.9168C10.1049 37.9168 2.08337 29.8953 2.08337 20.0002C2.08337 10.1051 10.1049 2.0835 20 2.0835C29.8952 2.0835 37.9167 10.1051 37.9167 20.0002C37.9167 21.3668 37.7635 22.6992 37.4727 23.9805C37.32 24.6537 36.6504 25.0757 35.977 24.9228C35.3039 24.7702 34.8819 24.1005 35.0347 23.4273C35.2845 22.3263 35.4167 21.1793 35.4167 20.0002C35.4167 11.4858 28.5144 4.5835 20 4.5835ZM13.75 17.3787C13.75 14.5909 16.6837 12.7778 19.177 14.0245L24.4202 16.6461C27.1842 18.028 27.1842 21.9723 24.4202 23.3543L19.177 25.9758C16.6837 27.2225 13.75 25.4095 13.75 22.6217V17.3787ZM18.059 16.2605C17.2279 15.845 16.25 16.4493 16.25 17.3787V22.6217C16.25 23.551 17.2279 24.1553 18.059 23.7398L23.3022 21.1182C24.2235 20.6575 24.2235 19.3428 23.3022 18.8822L18.059 16.2605ZM31.6667 25.4168C32.357 25.4168 32.9167 25.9765 32.9167 26.6668V30.4168H36.6667C37.357 30.4168 37.9167 30.9765 37.9167 31.6668C37.9167 32.3572 37.357 32.9168 36.6667 32.9168H32.9167V36.6668C32.9167 37.3572 32.357 37.9168 31.6667 37.9168C30.9764 37.9168 30.4167 37.3572 30.4167 36.6668V32.9168H26.6667C25.9764 32.9168 25.4167 32.3572 25.4167 31.6668C25.4167 30.9765 25.9764 30.4168 26.6667 30.4168H30.4167V26.6668C30.4167 25.9765 30.9764 25.4168 31.6667 25.4168Z" fill="#B1B1B1"/>
</svg>
